# Hierarchical Translation and Rotation (.htr) file
# Generated by EVaRT
[Header]
FileType htr
DataType HTRS
FileVersion 1
NumSegments 23
NumFrames 4
DataFrameRate 120
EulerRotationOrder ZYX
CalibrationUnits mm
RotationUnits Degrees
GlobalAxisofGravity Y
BoneLengthAxis Y
ScaleFactor 1
[SegmentNames&Hierarchy]
#CHILD            PARENT
DaveRoot          GLOBAL
Spine1            DaveRoot
Spine2            Spine1
Spine3            Spine2
Spine4            Spine3
Neck              Spine4
Head              Neck
LClavicle         Spine4
LUpperArm         LClavicle
LLowerArm         LUpperArm
LHand             LLowerArm
RClavicle         Spine4
RUpperArm         RClavicle
RLowerArm         RUpperArm
RHand             RLowerArm
RUpperLeg         DaveRoot
RLowerLeg         RUpperLeg
RFoot             RLowerLeg
RToes             RFoot
LUpperLeg         DaveRoot
LLowerLeg         LUpperLeg
LFoot             LLowerLeg
LToes             LFoot
[BasePosition]
#SegmentName      Tx   Ty   Tz   Rx   Ry   Rz   BoneLength
DaveRoot          9999999.000000	9999999.000000	9999999.000000	9999999.000000	9999999.000000	9999999.000000	9999999.000000
Spine1            9999999.000000	9999999.000000	9999999.000000	9999999.000000	9999999.000000	9999999.000000	9999999.000000
Spine2            9999999.000000	9999999.000000	9999999.000000	9999999.000000	9999999.000000	9999999.000000	9999999.000000
Spine3            9999999.000000	9999999.000000	9999999.000000	9999999.000000	9999999.000000	9999999.000000	9999999.000000
Spine4            9999999.000000	9999999.000000	9999999.000000	9999999.000000	9999999.000000	9999999.000000	9999999.000000
Neck              9999999.000000	9999999.000000	9999999.000000	9999999.000000	9999999.000000	9999999.000000	9999999.000000
Head              9999999.000000	9999999.000000	9999999.000000	9999999.000000	9999999.000000	9999999.000000	9999999.000000
LClavicle         9999999.000000	9999999.000000	9999999.000000	9999999.000000	9999999.000000	9999999.000000	9999999.000000
LUpperArm         9999999.000000	9999999.000000	9999999.000000	9999999.000000	9999999.000000	9999999.000000	9999999.000000
LLowerArm         9999999.000000	9999999.000000	9999999.000000	9999999.000000	9999999.000000	9999999.000000	9999999.000000
LHand             9999999.000000	9999999.000000	9999999.000000	9999999.000000	9999999.000000	9999999.000000	9999999.000000
RClavicle         9999999.000000	9999999.000000	9999999.000000	9999999.000000	9999999.000000	9999999.000000	9999999.000000
RUpperArm         9999999.000000	9999999.000000	9999999.000000	9999999.000000	9999999.000000	9999999.000000	9999999.000000
RLowerArm         9999999.000000	9999999.000000	9999999.000000	9999999.000000	9999999.000000	9999999.000000	9999999.000000
RHand             9999999.000000	9999999.000000	9999999.000000	9999999.000000	9999999.000000	9999999.000000	9999999.000000
RUpperLeg         9999999.000000	9999999.000000	9999999.000000	9999999.000000	9999999.000000	9999999.000000	9999999.000000
RLowerLeg         9999999.000000	9999999.000000	9999999.000000	9999999.000000	9999999.000000	9999999.000000	9999999.000000
RFoot             9999999.000000	9999999.000000	9999999.000000	9999999.000000	9999999.000000	9999999.000000	9999999.000000
RToes             9999999.000000	9999999.000000	9999999.000000	9999999.000000	9999999.000000	9999999.000000	9999999.000000
LUpperLeg         9999999.000000	9999999.000000	9999999.000000	9999999.000000	9999999.000000	9999999.000000	9999999.000000
LLowerLeg         9999999.000000	9999999.000000	9999999.000000	9999999.000000	9999999.000000	9999999.000000	9999999.000000
LFoot             9999999.000000	9999999.000000	9999999.000000	9999999.000000	9999999.000000	9999999.000000	9999999.000000
LToes             9999999.000000	9999999.000000	9999999.000000	9999999.000000	9999999.000000	9999999.000000	9999999.000000
#Beginning of Data.
[DaveRoot]
#Fr	Tx	Ty	Tz	Rx	Ry	Rz	SF
330	-9999284.015132	-9998963.174354	-10000203.014637	21.777926	-80.337578	6.209404	0.000010	
331	-9999307.999551	-9998962.476477	-10000201.011386	19.344794	-80.639791	8.282171	0.000010	
332	-9999332.253744	-9998962.220726	-10000200.001605	14.858623	-80.525413	12.692127	0.000010	
333	-9999355.925572	-9998963.813107	-10000198.710491	12.229933	-80.640070	14.847038	0.000010	
[Spine1]
#Fr	Tx	Ty	Tz	Rx	Ry	Rz	SF
330	-9999999.000000	-9999899.000000	-9999999.000000	-0.743913	-3.481689	1.540135	0.000010	
331	-9999999.000000	-9999899.000000	-9999999.000000	-0.644146	-3.298906	1.543806	0.000010	
332	-9999999.000000	-9999899.000000	-9999999.000000	-0.693501	-3.504713	1.254634	0.000010	
333	-9999999.000000	-9999899.000000	-9999999.000000	-0.579764	-3.460442	1.204313	0.000010	
[Spine2]
#Fr	Tx	Ty	Tz	Rx	Ry	Rz	SF
330	-9999999.000000	-9999899.000000	-9999999.000000	-0.743913	-3.481689	1.540135	0.000010	
331	-9999999.000000	-9999899.000000	-9999999.000000	-0.644146	-3.298906	1.543806	0.000010	
332	-9999999.000000	-9999899.000000	-9999999.000000	-0.693501	-3.504713	1.254634	0.000010	
333	-9999999.000000	-9999899.000000	-9999999.000000	-0.579764	-3.460442	1.204313	0.000010	
[Spine3]
#Fr	Tx	Ty	Tz	Rx	Ry	Rz	SF
330	-9999999.000000	-9999899.000000	-9999999.000000	-0.743913	-3.481689	1.540135	0.000010	
331	-9999999.000000	-9999899.000000	-9999999.000000	-0.644146	-3.298906	1.543806	0.000010	
332	-9999999.000000	-9999899.000000	-9999999.000000	-0.693501	-3.504713	1.254634	0.000010	
333	-9999999.000000	-9999899.000000	-9999999.000000	-0.579764	-3.460442	1.204313	0.000010	
[Spine4]
#Fr	Tx	Ty	Tz	Rx	Ry	Rz	SF
330	-9999999.000000	-9999899.000000	-9999999.000000	-0.743913	-3.481689	1.540135	0.000010	
331	-9999999.000000	-9999899.000000	-9999999.000000	-0.644146	-3.298906	1.543806	0.000010	
332	-9999999.000000	-9999899.000000	-9999999.000000	-0.693501	-3.504713	1.254634	0.000010	
333	-9999999.000000	-9999899.000000	-9999999.000000	-0.579764	-3.460442	1.204313	0.000010	
[Neck]
#Fr	Tx	Ty	Tz	Rx	Ry	Rz	SF
330	-9999999.000000	-9999899.000000	-9999999.000000	-23.308294	-0.564046	-5.167382	0.000008	
331	-9999999.000000	-9999899.000000	-9999999.000000	-23.197834	-0.878057	-5.698494	0.000008	
332	-9999999.000000	-9999899.000000	-9999999.000000	-23.193733	-0.504805	-5.257064	0.000008	
333	-9999999.000000	-9999899.000000	-9999999.000000	-23.004185	-0.346141	-5.658061	0.000008	
[Head]
#Fr	Tx	Ty	Tz	Rx	Ry	Rz	SF
330	-9999999.000000	-9999919.000000	-9999999.000000	-23.308294	-0.564046	-5.167382	0.000020	
331	-9999999.000000	-9999919.000000	-9999999.000000	-23.197834	-0.878057	-5.698494	0.000020	
332	-9999999.000000	-9999919.000000	-9999999.000000	-23.193733	-0.504805	-5.257064	0.000020	
333	-9999999.000000	-9999919.000000	-9999999.000000	-23.004185	-0.346141	-5.658061	0.000020	
[LClavicle]
#Fr	Tx	Ty	Tz	Rx	Ry	Rz	SF
330	-9999999.000000	-9999899.000000	-9999999.000000	9.550002	0.249898	0.036818	0.000020	
331	-9999999.000000	-9999899.000000	-9999999.000000	9.923549	0.227723	0.220440	0.000020	
332	-9999999.000000	-9999899.000000	-9999999.000000	9.296768	0.228931	0.123636	0.000020	
333	-9999999.000000	-9999899.000000	-9999999.000000	9.916017	0.055610	1.203747	0.000020	
[LUpperArm]
#Fr	Tx	Ty	Tz	Rx	Ry	Rz	SF
330	-9999999.000000	-9999799.000000	-9999999.000000	44.002651	9.770680	-49.527086	0.000030	
331	-9999999.000000	-9999799.000000	-9999999.000000	43.200461	10.113990	-50.124669	0.000030	
332	-9999999.000000	-9999799.000000	-9999999.000000	42.238695	10.392165	-50.301888	0.000030	
333	-9999999.000000	-9999799.000000	-9999999.000000	40.673694	10.666841	-51.679764	0.000030	
[LLowerArm]
#Fr	Tx	Ty	Tz	Rx	Ry	Rz	SF
330	-9999999.000000	-9999699.000000	-9999999.000000	107.776991	0.000000	0.000000	0.000020	
331	-9999999.000000	-9999699.000000	-9999999.000000	107.312716	0.000000	0.000000	0.000020	
332	-9999999.000000	-9999699.000000	-9999999.000000	107.051870	0.000000	0.000000	0.000020	
333	-9999999.000000	-9999699.000000	-9999999.000000	107.278130	0.000000	0.000000	0.000020	
[LHand]
#Fr	Tx	Ty	Tz	Rx	Ry	Rz	SF
330	-9999999.000000	-9999799.000000	-9999999.000000	15.078101	0.000000	-0.000000	0.000012	
331	-9999999.000000	-9999799.000000	-9999999.000000	15.187490	0.000000	-0.000000	0.000012	
332	-9999999.000000	-9999799.000000	-9999999.000000	15.674275	0.000000	-0.000000	0.000012	
333	-9999999.000000	-9999799.000000	-9999999.000000	15.436594	0.000000	-0.000000	0.000012	
[RClavicle]
#Fr	Tx	Ty	Tz	Rx	Ry	Rz	SF
330	-9999999.000000	-9999899.000000	-9999999.000000	8.383137	-0.368943	2.700045	0.000020	
331	-9999999.000000	-9999899.000000	-9999999.000000	7.590637	-0.274880	2.259877	0.000020	
332	-9999999.000000	-9999899.000000	-9999999.000000	8.349993	-0.392949	2.873321	0.000020	
333	-9999999.000000	-9999899.000000	-9999999.000000	8.093119	-0.305529	2.345669	0.000020	
[RUpperArm]
#Fr	Tx	Ty	Tz	Rx	Ry	Rz	SF
330	-9999999.000000	-9999799.000000	-9999999.000000	-176.303834	-1.002652	-126.237227	0.000030	
331	-9999999.000000	-9999799.000000	-9999999.000000	-176.872533	-1.118563	-125.707356	0.000030	
332	-9999999.000000	-9999799.000000	-9999999.000000	-176.526245	-1.330813	-126.144027	0.000030	
333	-9999999.000000	-9999799.000000	-9999999.000000	-177.003484	-1.709935	-125.418994	0.000030	
[RLowerArm]
#Fr	Tx	Ty	Tz	Rx	Ry	Rz	SF
330	-9999999.000000	-9999699.000000	-9999999.000000	-105.078861	0.000000	0.000000	0.000020	
331	-9999999.000000	-9999699.000000	-9999999.000000	-105.400083	0.000000	0.000000	0.000020	
332	-9999999.000000	-9999699.000000	-9999999.000000	-105.490366	0.000000	0.000000	0.000020	
333	-9999999.000000	-9999699.000000	-9999999.000000	-106.774015	0.000000	0.000000	0.000020	
[RHand]
#Fr	Tx	Ty	Tz	Rx	Ry	Rz	SF
330	-9999999.000000	-9999799.000000	-9999999.000000	-110.760721	52.798600	-132.510426	0.000012	
331	-9999999.000000	-9999799.000000	-9999999.000000	-111.404193	52.076685	-133.597913	0.000012	
332	-9999999.000000	-9999799.000000	-9999999.000000	-111.470088	50.506508	-134.079425	0.000012	
333	-9999999.000000	-9999799.000000	-9999999.000000	-112.452332	51.534975	-135.379170	0.000012	
[RUpperLeg]
#Fr	Tx	Ty	Tz	Rx	Ry	Rz	SF
330	-10000114.911102	-10000009.000000	-9999967.941715	41.205015	-14.132436	12.295360	0.000053	
331	-10000114.911102	-10000009.000000	-9999967.941715	39.303715	-12.943580	12.703206	0.000053	
332	-10000114.911102	-10000009.000000	-9999967.941715	37.708454	-11.790948	12.669267	0.000053	
333	-10000114.911102	-10000009.000000	-9999967.941715	35.776720	-10.453558	13.305832	0.000053	
[RLowerLeg]
#Fr	Tx	Ty	Tz	Rx	Ry	Rz	SF
330	-9999999.000000	-9999469.000000	-9999999.000000	-31.833645	-0.000000	0.000000	0.000046	
331	-9999999.000000	-9999469.000000	-9999999.000000	-26.815508	-0.000000	0.000000	0.000046	
332	-9999999.000000	-9999469.000000	-9999999.000000	-21.867019	-0.000000	0.000000	0.000046	
333	-9999999.000000	-9999469.000000	-9999999.000000	-17.595176	-0.000000	0.000000	0.000046	
[RFoot]
#Fr	Tx	Ty	Tz	Rx	Ry	Rz	SF
330	-9999999.000000	-9999539.000000	-9999999.000000	4.564128	28.226233	-6.912454	0.000013	
331	-9999999.000000	-9999539.000000	-9999999.000000	3.145037	26.661018	-4.535691	0.000013	
332	-9999999.000000	-9999539.000000	-9999999.000000	1.426961	23.583324	-2.619875	0.000013	
333	-9999999.000000	-9999539.000000	-9999999.000000	-1.668249	12.702408	-0.902716	0.000013	
[RToes]
#Fr	Tx	Ty	Tz	Rx	Ry	Rz	SF
330	-9999999.000000	-9999869.000000	-9999999.000000	-31.736762	0.000000	-0.000000	0.000010	
331	-9999999.000000	-9999869.000000	-9999999.000000	-29.096298	-0.000000	-0.000000	0.000010	
332	-9999999.000000	-9999869.000000	-9999999.000000	-23.959576	0.000000	-0.000000	0.000010	
333	-9999999.000000	-9999869.000000	-9999999.000000	-12.107144	0.000000	-0.000000	0.000010	
[LUpperLeg]
#Fr	Tx	Ty	Tz	Rx	Ry	Rz	SF
330	-9999883.088898	-10000009.000000	-9999967.941715	-3.372515	5.749142	-0.554377	0.000053	
331	-9999883.088898	-10000009.000000	-9999967.941715	-3.743773	5.654993	-0.891338	0.000053	
332	-9999883.088898	-10000009.000000	-9999967.941715	-3.529808	5.724146	-1.450905	0.000053	
333	-9999883.088898	-10000009.000000	-9999967.941715	-3.740153	5.818922	-1.760842	0.000053	
[LLowerLeg]
#Fr	Tx	Ty	Tz	Rx	Ry	Rz	SF
330	-9999999.000000	-9999469.000000	-9999999.000000	-16.967516	0.000000	-0.000000	0.000046	
331	-9999999.000000	-9999469.000000	-9999999.000000	-18.557289	0.000000	-0.000000	0.000046	
332	-9999999.000000	-9999469.000000	-9999999.000000	-20.599639	-0.000000	-0.000000	0.000046	
333	-9999999.000000	-9999469.000000	-9999999.000000	-22.492263	0.000000	0.000000	0.000046	
[LFoot]
#Fr	Tx	Ty	Tz	Rx	Ry	Rz	SF
330	-9999999.000000	-9999539.000000	-9999999.000000	-22.043043	-2.024236	3.218819	0.000013	
331	-9999999.000000	-9999539.000000	-9999999.000000	-24.008147	-3.481255	3.095875	0.000013	
332	-9999999.000000	-9999539.000000	-9999999.000000	-25.577284	-8.088533	2.914416	0.000013	
333	-9999999.000000	-9999539.000000	-9999999.000000	-29.305745	-9.297600	2.733136	0.000013	
[LToes]
#Fr	Tx	Ty	Tz	Rx	Ry	Rz	SF
330	-9999999.000000	-9999869.000000	-9999999.000000	17.656384	0.000000	-0.000000	0.000010	
331	-9999999.000000	-9999869.000000	-9999999.000000	13.663057	0.000000	-0.000000	0.000010	
332	-9999999.000000	-9999869.000000	-9999999.000000	6.089797	0.000000	-0.000000	0.000010	
333	-9999999.000000	-9999869.000000	-9999999.000000	6.606666	0.000000	-0.000000	0.000010	
